<?xml version="1.0" standalone="no"?>
<!DOCTYPE svg PUBLIC "-//W3C//DTD SVG 20010904//EN"
 "http://www.w3.org/TR/2001/REC-SVG-20010904/DTD/svg10.dtd">
<svg version="1.0" xmlns="http://www.w3.org/2000/svg"
 width="624.000000pt" height="624.000000pt" viewBox="0 0 624.000000 624.000000"
 preserveAspectRatio="xMidYMid meet">
<metadata>
Created by potrace 1.14, written by Peter Selinger 2001-2017
</metadata>
<g transform="translate(0.000000,624.000000) scale(0.100000,-0.100000)"
fill="#000000" stroke="none">
<path d="M3202 5945 c-10 -11 -34 -46 -55 -77 -127 -198 -148 -220 -214 -237
-119 -30 -180 -55 -252 -101 -56 -36 -84 -48 -102 -45 -51 11 -219 9 -231 -3
-14 -14 16 -52 42 -52 9 0 25 -6 35 -14 18 -13 18 -14 -6 -21 -25 -8 -102 -58
-130 -85 -21 -19 -52 -80 -42 -80 5 0 3 -4 -3 -8 -5 -4 -15 -23 -20 -42 -9
-32 -13 -35 -54 -40 -49 -5 -43 -20 7 -16 23 1 30 -2 28 -14 -2 -8 -4 -20 -4
-26 -1 -6 -10 -21 -21 -34 -11 -13 -20 -29 -20 -37 0 -7 -4 -13 -8 -13 -5 0
-23 -30 -42 -67 -28 -56 -33 -79 -33 -133 0 -58 6 -106 18 -150 5 -20 13 -82
20 -159 3 -36 7 -67 10 -69 2 -3 0 -13 -6 -23 -5 -11 -6 -19 -1 -19 4 0 8 -9
8 -20 0 -18 -8 -24 -28 -21 -5 0 -8 -3 -8 -8 0 -5 -9 -12 -19 -16 -28 -9 -91
-76 -91 -97 0 -10 -4 -18 -9 -18 -8 0 -19 -39 -26 -95 -2 -11 -4 -24 -6 -30
-5 -18 11 -144 23 -173 23 -58 51 -112 59 -112 4 0 10 -8 13 -17 6 -17 64 -61
77 -59 3 1 12 -4 20 -11 16 -13 87 -26 135 -25 31 1 31 1 59 -103 16 -57 32
-102 36 -100 7 5 23 -24 21 -37 -1 -4 13 -17 30 -29 17 -13 28 -18 24 -11 -17
28 15 9 35 -20 13 -18 27 -35 31 -36 4 -2 8 -8 8 -13 0 -13 24 -41 125 -144
50 -51 100 -105 112 -119 l23 -26 -23 -5 c-19 -5 -154 -1 -167 5 -3 1 -9 2
-13 1 -4 -1 -23 -3 -42 -6 -19 -2 -52 -12 -73 -22 -37 -18 -94 -68 -86 -76 3
-3 -17 -21 -45 -40 -66 -47 -99 -99 -155 -239 -45 -111 -67 -220 -48 -232 17
-11 4 -71 -19 -86 -33 -21 -110 -99 -141 -140 -55 -75 -110 -212 -193 -475
-26 -82 -57 -168 -68 -190 -11 -22 -18 -40 -16 -40 2 -1 -3 -19 -13 -40 -48
-117 -113 -301 -110 -312 1 -2 -6 -22 -14 -45 -15 -41 -69 -246 -80 -298 -22
-110 -27 -157 -29 -240 -1 -52 3 -101 8 -107 5 -7 6 -13 2 -13 -4 0 -2 -6 4
-14 8 -9 8 -16 2 -20 -15 -10 5 -56 40 -94 51 -55 83 -66 194 -68 99 -2 243
-11 300 -20 37 -5 210 -13 465 -20 343 -9 367 -10 588 -29 17 -2 34 0 37 4 2
4 35 4 72 0 80 -9 443 -18 908 -23 182 -2 345 -7 364 -10 37 -7 151 6 321 38
70 13 93 16 151 21 37 2 79 9 93 15 15 5 47 10 71 10 24 0 54 4 67 9 13 5 41
11 63 15 22 3 51 8 65 10 14 3 41 7 60 10 74 11 139 37 178 72 43 37 56 74 67
189 2 28 6 61 9 75 3 14 7 45 10 71 3 25 7 52 10 60 3 7 7 33 10 57 3 24 12
82 20 130 8 48 18 105 21 127 10 64 16 99 20 120 1 11 6 38 10 60 3 22 10 60
15 85 5 25 12 61 14 80 5 30 45 268 61 361 3 16 12 62 21 102 27 132 17 211
-29 215 -6 0 -46 3 -87 6 -151 12 -207 16 -287 21 -149 9 -237 15 -288 20 -27
2 -108 7 -179 9 l-130 5 -23 -27 c-23 -26 -49 -95 -60 -157 -8 -43 -11 -60
-13 -60 -1 0 -3 -16 -5 -35 -4 -39 -12 -90 -20 -132 -3 -16 -7 -38 -9 -50 -2
-13 -7 -35 -11 -50 -4 -15 -8 -42 -10 -60 -1 -18 -5 -40 -9 -48 -3 -8 -7 -31
-9 -50 -2 -19 -6 -41 -11 -48 -4 -6 -5 -12 -2 -12 3 0 1 -12 -5 -27 -6 -16
-13 -48 -16 -73 -8 -76 -9 -79 -16 -86 -12 -12 -8 -26 5 -18 7 4 8 3 4 -4 -12
-19 -30 -3 -53 46 -38 80 -201 380 -213 392 -11 11 -39 77 -46 110 -4 19 -8
37 -9 40 -1 3 -5 19 -9 35 -34 137 -131 368 -163 388 -6 4 -18 13 -25 20 -24
22 -72 53 -108 71 -19 9 -45 24 -58 34 -20 16 -22 22 -13 46 29 74 0 168 -74
240 -29 28 -60 67 -69 87 -19 41 -88 115 -128 135 l-27 14 28 27 c15 16 54 48
87 73 67 50 214 193 214 208 0 5 7 12 15 16 8 3 15 13 15 21 0 9 4 14 9 10 5
-3 12 3 16 14 3 10 16 31 30 47 35 41 105 194 88 194 -4 0 7 12 23 28 64 58
119 158 144 262 15 62 15 172 0 201 -6 10 -8 19 -5 19 3 0 -2 14 -11 31 -8 17
-11 28 -5 25 6 -4 11 -1 11 6 0 8 15 22 33 32 33 20 75 61 131 130 17 21 36
44 42 50 6 7 15 23 19 36 4 14 18 50 30 80 34 83 45 174 30 255 -10 54 -7 88
10 97 8 5 13 13 10 19 -4 5 -3 9 2 9 32 0 49 153 24 215 -7 17 -11 30 -10 30
10 0 -67 98 -107 138 -78 75 -268 162 -324 147 -42 -11 -120 50 -159 125 -34
66 -64 99 -146 155 -27 19 -52 38 -55 41 -6 9 -87 32 -120 35 -62 6 -135 30
-175 58 -80 55 -152 157 -157 221 -1 14 -6 25 -10 25 -4 0 -8 7 -8 15 0 23
-66 16 -88 -10z m763 -5225 c-3 -5 -1 -10 4 -10 6 0 11 -5 11 -11 0 -5 -6 -7
-12 -3 -7 4 -1 -5 15 -21 15 -15 27 -33 27 -39 0 -6 11 -20 25 -30 14 -10 25
-23 25 -29 0 -5 -7 -4 -15 3 -10 9 -15 9 -15 1 0 -6 5 -11 11 -11 8 0 8 -4 0
-14 -9 -11 -9 -15 1 -19 8 -3 6 -6 -5 -6 -14 -1 -17 -6 -12 -21 4 -13 1 -22
-10 -26 -14 -6 -14 -8 1 -19 12 -8 14 -14 5 -19 -6 -4 -9 -12 -6 -17 4 -5 1
-9 -6 -9 -7 0 -9 -3 -6 -6 9 -9 38 16 31 27 -3 5 1 9 8 9 10 0 9 3 -2 11 -13
9 -13 10 0 6 8 -2 14 -12 12 -22 -3 -12 1 -16 11 -12 12 4 14 0 11 -21 l-4
-27 18 23 c14 18 20 20 30 10 9 -9 12 -9 13 2 1 8 1 18 0 23 0 4 4 7 9 7 6 0
10 -5 10 -12 0 -6 3 -8 7 -4 5 4 1 13 -7 19 -18 14 -24 37 -10 37 6 0 10 -4
10 -10 0 -5 6 -10 13 -10 12 1 -24 35 -45 42 -6 2 -8 9 -5 16 12 17 106 -86
100 -109 -2 -5 1 -9 6 -9 5 0 12 -7 15 -16 4 -10 2 -13 -6 -8 -16 10 -109 11
-115 1 -5 -8 -46 -3 -64 9 -8 4 -7 9 2 16 11 8 11 9 -1 5 -8 -2 -14 -11 -14
-20 1 -13 -2 -14 -16 -7 -9 5 -20 7 -23 3 -3 -3 -4 7 -1 22 3 17 0 31 -8 36
-9 6 -9 9 -1 9 7 0 10 9 7 23 -8 39 -16 81 -17 102 -1 11 -5 22 -8 25 -4 3 -9
21 -12 40 -2 19 -6 40 -7 45 -5 19 0 35 11 35 5 0 7 -4 4 -10z m109 -165 c-7
-16 -24 -21 -24 -6 0 8 7 13 27 20 1 1 0 -6 -3 -14z m27 -24 c-10 -7 -8 -12
10 -25 15 -10 18 -16 9 -16 -13 0 -13 -2 0 -10 13 -9 13 -10 0 -10 -13 0 -13
-1 0 -11 12 -8 9 -9 -10 -4 l-25 6 25 -16 c14 -9 18 -14 9 -11 -9 2 -22 -1
-28 -7 -9 -9 -10 -8 -5 7 6 16 4 18 -10 13 -10 -4 -15 -3 -11 4 4 5 1 16 -5
25 -10 11 -16 12 -29 2 -10 -8 -9 -5 3 10 13 15 15 22 6 22 -7 0 2 11 21 24
21 14 38 20 44 14 6 -6 5 -12 -4 -17z"/>
<path d="M4169 439 c-6 -27 10 -34 28 -14 4 4 3 5 -4 1 -7 -4 -13 2 -15 16 -3
22 -4 22 -9 -3z"/>
<path d="M4095 400 c-3 -5 -1 -10 4 -10 6 0 11 5 11 10 0 6 -2 10 -4 10 -3 0
-8 -4 -11 -10z"/>
<path d="M4077 530 c-8 -11 -17 -17 -21 -12 -13 12 -2 -21 13 -39 15 -19 40
-15 37 6 -1 7 -7 19 -14 27 -9 11 -9 17 0 26 7 7 9 12 6 12 -4 0 -13 -9 -21
-20z m16 -46 c-4 -12 -8 -13 -14 -3 -9 15 -2 32 11 24 5 -3 6 -13 3 -21z"/>
</g>
</svg>
